<svg xmlns="http://www.w3.org/2000/svg" width="16" height="16" viewBox="0 0 16 16"><g fill="none" fill-rule="evenodd" transform="translate(-1 .3)"><path fill="#000000" d="M0,8.42011393 L0,16.4201139 L15,16.4201139 L15,7.42011393 L14.75,7.42011393 L14.75,12.4201139 C14.75,13.3866122 13.9664983,14.1701139 13,14.1701139 L4,14.1701139 C3.03350169,14.1701139 2.25,13.3866122 2.25,12.4201139 L2.25,3.42011393 C2.25,2.45361562 3.03350169,1.67011393 4,1.67011393 L8,1.67011393 L8,0.420113932 L0,0.420113932 L0,8.42011393 L0,0.420113932 L8,0.420113932 L8,3.17011393 L4,3.17011393 C3.86192881,3.17011393 3.75,3.28204274 3.75,3.42011393 L3.75,12.4201139 C3.75,12.5581851 3.86192881,12.6701139 4,12.6701139 L13,12.6701139 C13.1380712,12.6701139 13.25,12.5581851 13.25,12.4201139 L13.25,7.42011393 L15,7.42011393 L15,16.4201139 L0,16.4201139 L0,8.42011393 Z"/><polygon fill="#000000" points="8.019 8.517 10.066 7.959 16.517 1.452 15.046 0 8.516 6.38"/></g></svg>